<svg version="1.1" xmlns="http://www.w3.org/2000/svg" xmlns:xlink="http://www.w3.org/1999/xlink" viewBox="0 0 172 172" width="50"  height="50" ><g fill="none" fill-rule="nonzero" stroke="none" stroke-width="1" stroke-linecap="butt" stroke-linejoin="miter" stroke-miterlimit="10" stroke-dasharray="" stroke-dashoffset="0" font-family="none" font-weight="none" font-size="none" text-anchor="none" style="mix-blend-mode: normal"><path d="M0,172v-172h172v172z" fill="none"></path><g fill="#000000"><path d="M31.81328,21.5c-5.67053,0 -10.31328,4.64275 -10.31328,10.31328v56.33672v10.75c-0.00119,0.07568 0.00161,0.15137 0.0084,0.22676c0.0561,9.73523 3.55774,15.79383 6.81953,20.53838c3.28818,4.78293 6.07207,8.1196 6.07207,13.63486v17.2c0.00012,1.18736 0.96264,2.14988 2.15,2.15h55.9c0.74975,0.00076 1.44576,-0.38908 1.83679,-1.02879c0.39103,-0.63971 0.4206,-1.43691 0.07805,-2.10383l-7.21846,-14.06738h0.58789c17.98669,0 32.66572,-15.07724 32.66572,-33.42158v-1.91484c2.51062,-1.25612 4.3,-3.67364 4.3,-6.58857c0,-4.26449 -3.79448,-7.525 -8.14228,-7.525h-56.35772v-54.18672c0,-5.67053 -4.64435,-10.31328 -10.31328,-10.31328zM111.8,21.5c-1.18736,0.00012 -2.14988,0.96264 -2.15,2.15v27.95c0.00012,1.18736 0.96264,2.14988 2.15,2.15h0.12598v15.05c0.00058,0.69165 0.33384,1.3408 0.89554,1.74439c0.56169,0.40359 1.28324,0.51234 1.93893,0.29224l7.85254,-2.63291l7.85254,2.63291c0.44413,0.14914 0.92481,0.14914 1.36894,0l7.85254,-2.63291l7.85254,2.63291c0.6557,0.2201 1.37724,0.11135 1.93893,-0.29224c0.56169,-0.40359 0.89495,-1.05273 0.89554,-1.74439v-15.05h0.12598c1.18736,-0.00012 2.14988,-0.96264 2.15,-2.15v-27.95c-0.00012,-1.18736 -0.96264,-2.14988 -2.15,-2.15zM31.81328,25.8h18.07344c3.34387,0 6.01328,2.66671 6.01328,6.01328v54.18672h-30.1v-54.18672c0,-3.34657 2.66671,-6.01328 6.01328,-6.01328zM113.95,25.8h34.4v23.6248c-0.60113,-0.03427 -1.18909,0.18507 -1.6209,0.60469c-0.0243,0.02185 -0.0481,0.04425 -0.07139,0.06719c-0.47936,0.49024 -0.69618,1.17969 -0.58369,1.85605v13.85742l-5.70254,-1.91484c-0.44413,-0.14914 -0.92481,-0.14914 -1.36894,0l-7.85254,2.63711l-7.85254,-2.63711c-0.44413,-0.14914 -0.92481,-0.14914 -1.36894,0l-5.70254,1.91484v-13.84482c0.12077,-0.70326 -0.11521,-1.42061 -0.62988,-1.91484c-0.02733,-0.02593 -0.05533,-0.05113 -0.08399,-0.07559c-0.42637,-0.38458 -0.98884,-0.58266 -1.56211,-0.5501zM122.55,49.45l-1.72168,0.86504l-0.34014,1.89385l1.31436,1.40674l0.74746,0.13438l1.72168,-0.86504l0.34014,-1.89385l-1.31436,-1.40674zM131.15,49.45l-1.72168,0.86504l-0.34014,1.89385l1.31436,1.40674l0.74746,0.13438l1.72168,-0.86504l0.34014,-1.89385l-1.31436,-1.40674zM139.75,49.45l-1.72168,0.86504l-0.34014,1.89385l1.31436,1.40674l0.74746,0.13438l1.72168,-0.86504l0.34014,-1.89385l-1.31436,-1.40674zM25.8,90.3h32.25h58.50772c2.24409,0 3.84228,1.57699 3.84228,3.225c0,1.64801 -1.59819,3.225 -3.84228,3.225h-4.75772c-0.77537,-0.01097 -1.49657,0.39641 -1.88746,1.06613c-0.39088,0.66972 -0.39088,1.49803 0,2.16775c0.39088,0.66972 1.11209,1.07709 1.88746,1.06613h4.3v0.97842c0,16.05566 -12.78231,29.12158 -28.36572,29.12158h-4.11524h-1.91904c-0.77537,-0.01097 -1.49657,0.39641 -1.88746,1.06613c-0.39088,0.66972 -0.39088,1.49803 0,2.16775c0.39088,0.66972 1.11209,1.07709 1.88746,1.06613h0.61309l6.61377,12.9h-50.22686v-12.9l1.72168,-0.86504l0.34014,-1.89385l-1.31436,-1.40674l-0.74746,-0.13437l-0.13437,0.06719c-0.64118,-5.82697 -3.85953,-9.86947 -6.69355,-13.9918c-2.89728,-4.21434 -5.5547,-8.66905 -5.98389,-16.21738l1.63349,-0.82305l0.34014,-1.89385l-1.31436,-1.40674l-0.74746,-0.13437zM34.4,96.75l-1.72168,0.86504l-0.34014,1.89385l1.31436,1.40674l0.74746,0.13438l1.72168,-0.86504l0.34014,-1.89385l-1.31436,-1.40674zM43,96.75l-1.72168,0.86504l-0.34014,1.89385l1.31436,1.40674l0.74746,0.13438l1.72168,-0.86504l0.34014,-1.89385l-1.31436,-1.40674zM51.6,96.75l-1.72168,0.86504l-0.34014,1.89385l1.31436,1.40674l0.74746,0.13438l1.72168,-0.86504l0.34014,-1.89385l-1.31436,-1.40674zM60.2,96.75l-1.72168,0.86504l-0.34014,1.89385l1.31436,1.40674l0.74746,0.13438l1.72168,-0.86504l0.34014,-1.89385l-1.31436,-1.40674zM68.8,96.75l-1.72168,0.86504l-0.34014,1.89385l1.31436,1.40674l0.74746,0.13438l1.72168,-0.86504l0.34014,-1.89385l-1.31436,-1.40674zM77.4,96.75l-1.72168,0.86504l-0.34014,1.89385l1.31436,1.40674l0.74746,0.13438l1.72168,-0.86504l0.34014,-1.89385l-1.31436,-1.40674zM86,96.75l-1.72168,0.86504l-0.34014,1.89385l1.31436,1.40674l0.74746,0.13438l1.72168,-0.86504l0.34014,-1.89385l-1.31436,-1.40674zM94.6,96.75l-1.72168,0.86504l-0.34014,1.89385l1.31436,1.40674l0.74746,0.13438l1.72168,-0.86504l0.34014,-1.89385l-1.31436,-1.40674zM103.2,96.75l-1.72168,0.86504l-0.34014,1.89385l1.31436,1.40674l0.74746,0.13438l1.72168,-0.86504l0.34014,-1.89385l-1.31436,-1.40674zM47.3,131.15l-1.72168,0.86504l-0.34014,1.89385l1.31436,1.40674l0.74746,0.13438l1.72168,-0.86504l0.34014,-1.89385l-1.31436,-1.40674zM55.9,131.15l-1.72168,0.86504l-0.34014,1.89385l1.31436,1.40674l0.74746,0.13438l1.72168,-0.86504l0.34014,-1.89385l-1.31436,-1.40674zM64.5,131.15l-1.72168,0.86504l-0.34014,1.89385l1.31436,1.40674l0.74746,0.13438l1.72168,-0.86504l0.34014,-1.89385l-1.31436,-1.40674zM73.1,131.15l-1.72168,0.86504l-0.34014,1.89385l1.31436,1.40674l0.74746,0.13438l1.72168,-0.86504l0.34014,-1.89385l-1.31436,-1.40674z"></path></g></g></svg>