<svg version="1.1" xmlns="http://www.w3.org/2000/svg" xmlns:xlink="http://www.w3.org/1999/xlink" viewBox="0 0 172 172" width="50"  height="50" ><g fill="none" fill-rule="nonzero" stroke="none" stroke-width="1" stroke-linecap="butt" stroke-linejoin="miter" stroke-miterlimit="10" stroke-dasharray="" stroke-dashoffset="0" font-family="none" font-weight="none" font-size="none" text-anchor="none" style="mix-blend-mode: normal"><path d="M0,172v-172h172v172z" fill="none"></path><g fill="#000000"><path d="M22.575,34.4c-4.13055,0 -7.525,3.39445 -7.525,7.525v95.675h15.05v-15.05h116.1v15.05h15.05v-65.575c0,-4.13055 -3.39445,-7.525 -7.525,-7.525c-2.14731,0 -4.06623,0.94071 -5.44219,2.40195c-1.95957,-2.68487 -4.97459,-4.55195 -8.53281,-4.55195h-70.95v12.51367c-2.5952,-4.46918 -6.54073,-9.35955 -12.30791,-12.16094c-3.12777,-1.51959 -6.39548,-2.24131 -9.53643,-2.46914c-8.02641,-0.5822 -14.89672,1.94176 -16.85566,2.73789v-21.04648c0,-4.13055 -3.39445,-7.525 -7.525,-7.525zM22.575,38.7c1.80775,0 3.225,1.41725 3.225,3.225v48.375c0,1.1868 0.9632,2.15 2.15,2.15c1.1868,0 2.15,-0.9632 2.15,-2.15h25.38428c1.0795,0.04447 2.14638,0.05479 3.17461,0h10.14111c0,1.1868 0.9632,2.15 2.15,2.15c1.1868,0 2.15,-0.9632 2.15,-2.15v-23.65h66.65c3.58724,0 6.45,2.86276 6.45,6.45c0,1.1868 0.9632,2.15 2.15,2.15c1.1868,0 2.15,-0.9632 2.15,-2.15v-1.075c0,-1.80775 1.41725,-3.225 3.225,-3.225c1.80775,0 3.225,1.41725 3.225,3.225v61.275h-6.45v-15.05h-124.7v15.05h-6.45v-91.375c0,-1.80775 1.41725,-3.225 3.225,-3.225zM44.22617,64.54619c0.77839,-0.01032 1.58756,0.00726 2.42295,0.05879c2.69167,0.16602 5.43391,0.73713 7.96172,1.96524c8.81596,4.28232 12.4696,14.47632 13.4165,17.33018c-1.63228,0.59596 -5.74492,1.95691 -10.62402,2.09961h-2.15c-2.85122,-0.14841 -5.8711,-0.77541 -8.77217,-2.26758c-0.01392,-0.00715 -0.02792,-0.01415 -0.04199,-0.02099c-8.81753,-4.28309 -12.4459,-14.18958 -13.40391,-17.01943c1.74793,-0.63987 5.74221,-2.07356 11.19092,-2.1458zM30.1,71.40772c2.02606,4.47065 5.70679,10.61715 11.73682,14.59228h-11.73682zM148.35,79.55c-1.1868,0 -2.15,0.9632 -2.15,2.15c0,1.1868 0.9632,2.15 2.15,2.15c1.1868,0 2.15,-0.9632 2.15,-2.15c0,-1.1868 -0.9632,-2.15 -2.15,-2.15zM148.35,88.15c-1.1868,0 -2.15,0.9632 -2.15,2.15c0,1.1868 0.9632,2.15 2.15,2.15c1.1868,0 2.15,-0.9632 2.15,-2.15c0,-1.1868 -0.9632,-2.15 -2.15,-2.15zM27.95,96.75c-1.1868,0 -2.15,0.9632 -2.15,2.15c0,1.1868 0.9632,2.15 2.15,2.15c1.1868,0 2.15,-0.9632 2.15,-2.15c0,-1.1868 -0.9632,-2.15 -2.15,-2.15zM36.55,96.75c-1.1868,0 -2.15,0.9632 -2.15,2.15c0,1.1868 0.9632,2.15 2.15,2.15c1.1868,0 2.15,-0.9632 2.15,-2.15c0,-1.1868 -0.9632,-2.15 -2.15,-2.15zM45.15,96.75c-1.1868,0 -2.15,0.9632 -2.15,2.15c0,1.1868 0.9632,2.15 2.15,2.15c1.1868,0 2.15,-0.9632 2.15,-2.15c0,-1.1868 -0.9632,-2.15 -2.15,-2.15zM53.75,96.75c-1.1868,0 -2.15,0.9632 -2.15,2.15c0,1.1868 0.9632,2.15 2.15,2.15c1.1868,0 2.15,-0.9632 2.15,-2.15c0,-1.1868 -0.9632,-2.15 -2.15,-2.15zM62.35,96.75c-1.1868,0 -2.15,0.9632 -2.15,2.15c0,1.1868 0.9632,2.15 2.15,2.15c1.1868,0 2.15,-0.9632 2.15,-2.15c0,-1.1868 -0.9632,-2.15 -2.15,-2.15zM70.95,96.75c-1.1868,0 -2.15,0.9632 -2.15,2.15c0,1.1868 0.9632,2.15 2.15,2.15c1.1868,0 2.15,-0.9632 2.15,-2.15c0,-1.1868 -0.9632,-2.15 -2.15,-2.15zM79.55,96.75c-1.1868,0 -2.15,0.9632 -2.15,2.15c0,1.1868 0.9632,2.15 2.15,2.15c1.1868,0 2.15,-0.9632 2.15,-2.15c0,-1.1868 -0.9632,-2.15 -2.15,-2.15zM88.15,96.75c-1.1868,0 -2.15,0.9632 -2.15,2.15c0,1.1868 0.9632,2.15 2.15,2.15c1.1868,0 2.15,-0.9632 2.15,-2.15c0,-1.1868 -0.9632,-2.15 -2.15,-2.15zM96.75,96.75c-1.1868,0 -2.15,0.9632 -2.15,2.15c0,1.1868 0.9632,2.15 2.15,2.15c1.1868,0 2.15,-0.9632 2.15,-2.15c0,-1.1868 -0.9632,-2.15 -2.15,-2.15zM105.35,96.75c-1.1868,0 -2.15,0.9632 -2.15,2.15c0,1.1868 0.9632,2.15 2.15,2.15c1.1868,0 2.15,-0.9632 2.15,-2.15c0,-1.1868 -0.9632,-2.15 -2.15,-2.15zM113.95,96.75c-1.1868,0 -2.15,0.9632 -2.15,2.15c0,1.1868 0.9632,2.15 2.15,2.15c1.1868,0 2.15,-0.9632 2.15,-2.15c0,-1.1868 -0.9632,-2.15 -2.15,-2.15zM122.55,96.75c-1.1868,0 -2.15,0.9632 -2.15,2.15c0,1.1868 0.9632,2.15 2.15,2.15c1.1868,0 2.15,-0.9632 2.15,-2.15c0,-1.1868 -0.9632,-2.15 -2.15,-2.15zM131.15,96.75c-1.1868,0 -2.15,0.9632 -2.15,2.15c0,1.1868 0.9632,2.15 2.15,2.15c1.1868,0 2.15,-0.9632 2.15,-2.15c0,-1.1868 -0.9632,-2.15 -2.15,-2.15zM139.75,96.75c-1.1868,0 -2.15,0.9632 -2.15,2.15c0,1.1868 0.9632,2.15 2.15,2.15c1.1868,0 2.15,-0.9632 2.15,-2.15c0,-1.1868 -0.9632,-2.15 -2.15,-2.15zM148.35,96.75c-1.1868,0 -2.15,0.9632 -2.15,2.15c0,1.1868 0.9632,2.15 2.15,2.15c1.1868,0 2.15,-0.9632 2.15,-2.15c0,-1.1868 -0.9632,-2.15 -2.15,-2.15z"></path></g></g></svg>