<svg version="1.1" xmlns="http://www.w3.org/2000/svg" xmlns:xlink="http://www.w3.org/1999/xlink" viewBox="0 0 172 172" width="50"  height="50" ><g fill="none" fill-rule="nonzero" stroke="none" stroke-width="1" stroke-linecap="butt" stroke-linejoin="miter" stroke-miterlimit="10" stroke-dasharray="" stroke-dashoffset="0" font-family="none" font-weight="none" font-size="none" text-anchor="none" style="mix-blend-mode: normal"><path d="M0,172v-172h172v172z" fill="none"></path><g fill="#000000"><path d="M86,12.78242l-70.95,24.38066v17.35957l2.78828,-0.87344l1.51172,-0.47031v99.47109h133.3v-99.47109l4.3,1.34375v-17.35957zM86,17.31758l66.65,22.91934v8.44043l-66.65,-20.82812l-66.65,20.82813v-8.44043zM86,32.35078l62.35,19.48438v96.51484h-12.43809c1.03301,-1.15059 1.68809,-2.64551 1.68809,-4.3v-31.20859c0,-3.85488 -0.94902,-7.65937 -2.75469,-11.07754l-1.52012,-2.86387h6.89512l-1.6209,-8.12969v-0.0084c-0.80625,-4.00605 -4.35039,-6.91191 -8.43203,-6.91191h-3.47695l-4.00605,-12.53047c-1.70488,-5.33301 -6.68516,-8.96953 -12.28691,-8.96953h-48.79492c-5.60176,0 -10.58203,3.63652 -12.28691,8.96953l-3.99766,12.53047h-3.47695c-4.09004,0 -7.63418,2.90586 -8.44043,6.91191l-1.6209,8.13809h6.89512l-1.52012,2.86387c-1.80566,3.41816 -2.75469,7.22266 -2.75469,11.07754v31.20859c0,1.65449 0.65508,3.14941 1.68809,4.3h-12.43809v-96.51484zM61.60254,66.65h48.79492c3.7541,0 7.05469,2.41035 8.18848,5.97969l4.96348,15.52031h6.61797c2.05762,0 3.80449,1.42774 4.20762,3.46016l0.60469,2.98984h-8.80156l1.67129,3.15781l3.1998,6.02168c1.47813,2.79668 2.25078,5.9041 2.25078,9.06191v31.20859c0,1.21777 -0.93223,2.15 -2.15,2.15h-6.45c-1.21777,0 -2.15,-0.93223 -2.15,-2.15v-8.6h-73.1v8.6c0,1.21777 -0.93223,2.15 -2.15,2.15h-6.45c-1.21777,0 -2.15,-0.93223 -2.15,-2.15v-31.20859c0,-3.15781 0.77266,-6.26523 2.25078,-9.06191l4.87109,-9.17949h-8.80156l0.60469,-2.98984c0.40312,-2.03242 2.15,-3.46016 4.21602,-3.46016h6.60957l4.96348,-15.52031c1.13379,-3.56934 4.44277,-5.97969 8.18848,-5.97969zM51.6,94.6c-1.18418,0 -2.15,0.96582 -2.15,2.15c0,1.18418 0.96582,2.15 2.15,2.15c1.18418,0 2.15,-0.96582 2.15,-2.15c0,-1.18418 -0.96582,-2.15 -2.15,-2.15zM60.2,94.6c-1.18418,0 -2.15,0.96582 -2.15,2.15c0,1.18418 0.96582,2.15 2.15,2.15c1.18418,0 2.15,-0.96582 2.15,-2.15c0,-1.18418 -0.96582,-2.15 -2.15,-2.15zM68.8,94.6c-1.18418,0 -2.15,0.96582 -2.15,2.15c0,1.18418 0.96582,2.15 2.15,2.15c1.18418,0 2.15,-0.96582 2.15,-2.15c0,-1.18418 -0.96582,-2.15 -2.15,-2.15zM77.4,94.6c-1.18418,0 -2.15,0.96582 -2.15,2.15c0,1.18418 0.96582,2.15 2.15,2.15c1.18418,0 2.15,-0.96582 2.15,-2.15c0,-1.18418 -0.96582,-2.15 -2.15,-2.15zM86,94.6c-1.18418,0 -2.15,0.96582 -2.15,2.15c0,1.18418 0.96582,2.15 2.15,2.15c1.18418,0 2.15,-0.96582 2.15,-2.15c0,-1.18418 -0.96582,-2.15 -2.15,-2.15zM94.6,94.6c-1.18418,0 -2.15,0.96582 -2.15,2.15c0,1.18418 0.96582,2.15 2.15,2.15c1.18418,0 2.15,-0.96582 2.15,-2.15c0,-1.18418 -0.96582,-2.15 -2.15,-2.15zM103.2,94.6c-1.18418,0 -2.15,0.96582 -2.15,2.15c0,1.18418 0.96582,2.15 2.15,2.15c1.18418,0 2.15,-0.96582 2.15,-2.15c0,-1.18418 -0.96582,-2.15 -2.15,-2.15zM111.8,94.6c-1.18418,0 -2.15,0.96582 -2.15,2.15c0,1.18418 0.96582,2.15 2.15,2.15c1.18418,0 2.15,-0.96582 2.15,-2.15c0,-1.18418 -0.96582,-2.15 -2.15,-2.15zM120.4,94.6c-1.18418,0 -2.15,0.96582 -2.15,2.15c0,1.18418 0.96582,2.15 2.15,2.15c1.18418,0 2.15,-0.96582 2.15,-2.15c0,-1.18418 -0.96582,-2.15 -2.15,-2.15zM53.75,105.35c-4.72832,0 -8.6,3.87168 -8.6,8.6c0,4.72832 3.87168,8.6 8.6,8.6c4.72832,0 8.6,-3.87168 8.6,-8.6c0,-4.72832 -3.87168,-8.6 -8.6,-8.6zM118.25,105.35c-4.72832,0 -8.6,3.87168 -8.6,8.6c0,4.72832 3.87168,8.6 8.6,8.6c4.72832,0 8.6,-3.87168 8.6,-8.6c0,-4.72832 -3.87168,-8.6 -8.6,-8.6zM68.8,107.5v4.3h34.4v-4.3zM53.75,109.65c2.40195,0 4.3,1.89805 4.3,4.3c0,2.40195 -1.89805,4.3 -4.3,4.3c-2.40195,0 -4.3,-1.89805 -4.3,-4.3c0,-2.40195 1.89805,-4.3 4.3,-4.3zM118.25,109.65c2.40195,0 4.3,1.89805 4.3,4.3c0,2.40195 -1.89805,4.3 -4.3,4.3c-2.40195,0 -4.3,-1.89805 -4.3,-4.3c0,-2.40195 1.89805,-4.3 4.3,-4.3zM68.8,116.1v4.3h34.4v-4.3zM53.75,139.75h64.5v4.3c0,1.65449 0.65508,3.14941 1.68809,4.3h-67.87617c1.03301,-1.15059 1.68809,-2.64551 1.68809,-4.3z"></path></g></g></svg>